<?xml version="1.0" standalone="no"?>
<!DOCTYPE svg PUBLIC "-//W3C//DTD SVG 20010904//EN"
 "http://www.w3.org/TR/2001/REC-SVG-20010904/DTD/svg10.dtd">
<svg version="1.0" xmlns="http://www.w3.org/2000/svg"
 width="337.000000pt" height="337.000000pt" viewBox="0 0 337.000000 337.000000"
 preserveAspectRatio="xMidYMid meet">
<metadata>
Created by potrace 1.11, written by Peter Selinger 2001-2013
</metadata>
<g transform="translate(0.000000,337.000000) scale(0.100000,-0.100000)"
fill="#000000" stroke="none">
<path d="M2196 2977 c3 -10 9 -15 12 -12 3 3 0 11 -7 18 -10 9 -11 8 -5 -6z"/>
<path d="M1217 2965 c-4 -8 -3 -16 1 -19 4 -3 9 4 9 15 2 23 -3 25 -10 4z"/>
<path d="M1290 2968 c0 -4 4 -8 9 -8 6 0 12 4 15 8 3 5 -1 9 -9 9 -8 0 -15 -4
-15 -9z"/>
<path d="M1413 2961 c0 -11 5 -18 9 -15 4 3 5 11 1 19 -7 21 -12 19 -10 -4z"/>
<path d="M1499 2973 c-1 -5 -1 -11 0 -15 0 -4 -8 -10 -19 -13 -23 -7 -27 -22
-5 -22 8 0 12 4 9 8 -2 4 1 9 8 11 10 4 22 38 12 38 -2 0 -5 -3 -5 -7z"/>
<path d="M1596 2972 c-3 -4 4 -9 15 -9 23 -2 25 3 4 10 -8 4 -16 3 -19 -1z"/>
<path d="M1850 2970 c0 -5 5 -10 11 -10 5 0 7 5 4 10 -3 6 -8 10 -11 10 -2 0
-4 -4 -4 -10z"/>
<path d="M1886 2972 c-3 -5 1 -9 9 -9 8 0 12 4 9 9 -3 4 -7 8 -9 8 -2 0 -6 -4
-9 -8z"/>
<path d="M1935 2970 c-3 -5 -3 -10 2 -10 4 0 1 -5 -7 -11 -12 -8 -12 -10 -1
-7 8 2 15 12 17 21 3 19 -2 22 -11 7z"/>
<path d="M1755 2959 c-4 -6 -5 -12 -2 -15 2 -3 7 2 10 11 7 17 1 20 -8 4z"/>
<path d="M2229 2953 c-13 -16 -12 -17 4 -4 9 7 17 15 17 17 0 8 -8 3 -21 -13z"/>
<path d="M1252 2951 c-11 -7 -11 -9 0 -14 9 -3 15 1 15 9 0 8 -1 14 -1 14 -1
0 -7 -4 -14 -9z"/>
<path d="M1326 2948 c3 -5 10 -6 15 -3 13 9 11 -9 -3 -24 -7 -8 -8 -11 -3 -8
6 3 17 1 25 -5 12 -8 12 -9 -2 -4 -12 4 -18 0 -19 -12 0 -14 -2 -14 -8 3 -5
11 -7 23 -5 26 2 4 -2 12 -9 18 -10 8 -14 7 -14 -4 0 -8 5 -11 11 -8 6 4 5 -1
-3 -10 -15 -18 -26 -23 -16 -7 6 10 -25 15 -73 12 -12 0 -20 3 -17 8 3 5 1 11
-4 14 -5 4 -12 2 -16 -3 -3 -5 -14 -8 -24 -6 -10 2 -18 -2 -18 -9 0 -7 6 -13
13 -13 7 0 11 4 9 8 -3 4 3 6 12 5 9 -2 18 -8 19 -15 1 -6 0 -7 -3 -1 -2 5 -9
8 -14 4 -5 -3 -6 -11 -2 -17 8 -12 14 -42 8 -35 -2 1 -4 8 -5 13 -1 6 -6 16
-12 23 -9 10 -14 10 -26 0 -13 -11 -14 -11 -7 1 6 11 3 13 -14 8 -16 -4 -21
-2 -18 8 4 9 -1 11 -14 8 -10 -3 -19 -10 -19 -15 0 -5 5 -6 12 -2 7 4 8 3 4
-4 -4 -6 -14 -8 -23 -5 -11 5 -14 3 -8 -6 6 -10 3 -11 -12 -2 -14 7 -23 7 -31
-1 -13 -13 -46 14 -34 28 4 5 -1 2 -11 -5 -10 -8 -16 -19 -13 -26 2 -6 -2 -12
-10 -12 -7 0 -10 5 -7 11 4 6 -1 5 -10 -2 -9 -8 -20 -11 -26 -8 -14 9 -42 -5
-34 -17 3 -6 1 -7 -6 -3 -9 6 -9 11 1 24 12 14 10 14 -12 2 -14 -8 -31 -13
-39 -11 -8 1 -10 -3 -6 -11 3 -7 0 -5 -8 4 -17 22 -32 11 -14 -11 11 -14 10
-15 -7 -1 -15 12 -20 12 -24 2 -3 -10 -8 -8 -19 5 -8 10 -12 13 -9 7 3 -6 -1
-11 -8 -11 -8 0 -12 10 -10 24 1 13 -2 21 -6 18 -5 -3 -7 -11 -4 -19 3 -7 -2
-13 -11 -14 -8 -1 -22 -3 -30 -4 -8 -1 -12 -5 -9 -10 3 -4 13 -4 24 2 13 7 19
6 23 -3 4 -11 -8 -13 -55 -8 -5 1 -8 9 -9 19 0 14 -2 14 -9 -3 -11 -28 -37
-49 -44 -36 -4 5 -2 12 4 16 13 8 13 25 -1 25 -5 0 -7 -4 -4 -10 9 -15 -11
-12 -24 3 -6 8 -7 18 -3 22 4 5 1 5 -6 1 -7 -4 -10 -11 -7 -15 2 -5 -4 -16
-14 -25 -15 -14 -24 -15 -40 -6 -12 6 -21 9 -22 8 -9 -35 2 -54 15 -25 5 9 7
9 12 -1 4 -9 10 -10 18 -3 9 8 13 7 13 -4 0 -8 -4 -12 -8 -9 -4 2 -10 -2 -12
-8 -4 -10 -6 -10 -6 0 -1 9 -6 10 -20 3 -14 -8 -22 -6 -35 8 -9 10 -13 21 -9
26 5 4 3 5 -4 2 -8 -5 -11 -42 -3 -42 1 0 3 -7 5 -15 1 -8 4 -21 6 -29 5 -16
-28 -24 -38 -9 -4 7 -1 8 7 3 9 -6 11 -4 5 5 -6 9 -4 11 6 6 8 -5 8 -2 -2 6
-9 7 -19 20 -22 28 -4 8 -5 4 -3 -9 3 -14 0 -32 -7 -40 -7 -8 -7 -12 -2 -9 6
3 16 0 22 -8 11 -11 8 -13 -15 -11 -23 2 -27 -2 -27 -23 -1 -14 -4 -30 -8 -36
-7 -12 -2 -47 9 -67 5 -7 0 -6 -11 3 -19 15 -19 14 -3 -11 9 -15 14 -30 10
-34 -4 -3 -7 -12 -8 -18 0 -7 -2 -20 -2 -29 -2 -12 -8 -16 -19 -12 -14 5 -15
4 -4 -4 8 -6 10 -15 6 -23 -6 -11 -5 -12 6 -1 23 21 31 13 9 -10 -24 -26 -26
-38 -6 -38 8 0 13 -8 11 -17 -2 -10 -4 -18 -6 -18 -1 0 -3 -9 -4 -21 -1 -12 4
-21 11 -21 10 0 11 4 2 14 -6 7 -8 16 -4 20 3 3 6 1 6 -6 0 -7 4 -10 8 -7 7 4
11 -17 13 -72 1 -22 2 -22 15 -5 12 17 13 16 9 -4 -2 -13 1 -23 6 -23 6 0 7
-4 4 -10 -3 -6 1 -7 10 -4 11 4 14 2 9 -9 -3 -8 0 -18 7 -23 8 -4 10 -3 5 4
-5 8 -1 10 10 5 15 -5 15 -7 0 -15 -9 -5 -20 -7 -24 -4 -5 3 -9 -1 -9 -8 0 -8
7 -12 15 -8 11 4 13 1 7 -8 -5 -9 -4 -11 4 -6 6 4 9 12 6 17 -4 5 -2 9 3 9 15
0 21 -37 8 -50 -8 -9 -5 -11 14 -6 20 6 22 5 8 -4 -19 -11 -13 -44 6 -33 6 3
8 2 3 -2 -4 -5 0 -19 8 -32 15 -23 15 -23 -4 -11 -11 6 -17 17 -13 23 3 5 -2
4 -11 -3 -9 -8 -16 -17 -15 -20 2 -22 -3 -42 -10 -38 -5 3 -9 -1 -9 -9 0 -22
5 -19 26 15 18 30 18 30 36 10 10 -11 13 -20 7 -20 -6 0 -12 6 -15 13 -2 6 -8
9 -12 5 -4 -4 -2 -16 6 -25 13 -16 12 -17 -2 -5 -14 10 -18 10 -23 -3 -3 -9
-2 -13 4 -10 6 3 10 1 10 -4 0 -6 7 -11 17 -11 9 0 14 -3 10 -6 -3 -4 -21 -1
-38 5 -23 8 -36 8 -43 1 -8 -8 -5 -9 9 -4 16 6 18 5 8 -7 -7 -7 -13 -17 -13
-23 0 -5 7 -1 15 10 9 12 14 14 15 6 0 -7 6 -10 13 -7 6 4 2 -2 -11 -13 -12
-11 -28 -22 -35 -25 -7 -2 -8 -8 -3 -13 5 -5 11 -4 13 4 5 13 24 17 22 5 -3
-20 2 -34 10 -28 5 3 13 0 17 -6 4 -8 3 -9 -4 -5 -7 4 -12 1 -12 -6 0 -10 -2
-10 -9 1 -12 19 -38 22 -38 5 0 -8 4 -14 9 -14 4 0 8 6 8 13 0 8 4 7 10 -3 15
-23 12 -29 -11 -25 -17 4 -19 2 -9 -11 10 -11 16 -12 26 -3 17 14 18 -2 2 -20
-10 -11 -10 -13 0 -7 7 4 12 1 12 -7 0 -8 7 -18 16 -21 13 -5 14 -3 7 6 -6 7
-10 20 -10 28 0 8 -2 21 -4 29 -2 7 2 15 9 17 7 1 8 0 2 -3 -6 -3 -4 -15 5
-34 9 -16 13 -29 10 -29 -3 0 -1 -9 5 -21 8 -14 8 -24 1 -33 -8 -10 -7 -17 4
-26 8 -7 12 -17 8 -23 -3 -6 -1 -7 5 -3 7 4 12 1 12 -8 0 -9 5 -16 11 -16 5 0
7 -5 4 -10 -4 -6 4 -6 19 1 14 7 22 17 19 25 -3 8 -10 11 -16 7 -6 -4 -7 -1
-2 6 8 15 25 2 29 -22 1 -8 8 -23 16 -33 8 -10 10 -15 3 -11 -6 4 -14 3 -18
-3 -3 -5 -1 -10 5 -10 7 0 5 -7 -4 -16 -15 -14 -21 -35 -17 -57 1 -5 -4 -5
-10 -1 -8 4 -9 0 -4 -15 9 -30 -3 -45 -23 -29 -11 9 -10 5 4 -17 10 -16 14
-26 8 -23 -12 8 -12 -21 1 -41 6 -11 4 -13 -9 -8 -10 4 -20 7 -22 7 -3 0 -2 5
1 10 10 17 -2 11 -16 -7 -7 -10 -10 -15 -5 -11 15 13 46 -12 46 -37 0 -13 5
-27 10 -30 7 -4 6 -13 -1 -27 -6 -12 -7 -18 -1 -14 5 3 12 -1 15 -9 4 -10 1
-12 -11 -9 -9 3 -6 -2 8 -10 14 -8 21 -15 16 -16 -5 0 -3 -7 4 -15 6 -8 9 -19
5 -25 -3 -5 -1 -10 4 -10 6 0 11 -9 11 -21 0 -11 4 -17 10 -14 5 3 10 0 10 -8
0 -19 44 -59 55 -50 4 5 5 3 2 -3 -9 -15 22 -56 36 -48 7 4 9 4 5 -1 -10 -11
35 -45 47 -36 18 14 46 21 40 10 -7 -11 13 -41 24 -35 3 2 15 -2 26 -10 19
-14 19 -15 -8 -10 -24 4 -28 2 -23 -12 5 -15 5 -15 -8 0 -7 10 -18 18 -24 18
-6 0 -9 9 -7 20 5 26 -6 25 -34 -2 l-24 -21 -19 24 -20 24 17 -30 c12 -21 25
-31 41 -31 16 0 20 3 14 11 -6 7 -7 15 -3 18 9 9 23 9 22 -1 -3 -19 2 -33 11
-27 6 3 10 1 10 -5 0 -6 -11 -8 -26 -6 -19 4 -24 1 -21 -9 4 -8 -1 -12 -11
-11 -9 2 -18 8 -20 14 -2 7 -8 9 -13 6 -6 -3 -5 -12 3 -22 12 -15 11 -16 -4
-3 -15 11 -21 11 -35 0 -11 -10 -14 -10 -9 -1 4 7 2 12 -4 12 -7 0 -10 6 -7
13 2 6 10 11 16 9 6 -1 11 9 11 23 0 14 -4 26 -10 26 -5 1 -14 2 -19 3 -5 0
-12 4 -16 8 -9 9 -35 -1 -35 -14 0 -5 4 -6 10 -3 6 3 10 1 10 -5 0 -6 4 -9 9
-6 16 10 20 -22 5 -35 -12 -10 -12 -14 -2 -20 7 -4 10 -11 6 -14 -3 -3 -19 8
-36 24 -16 17 -27 33 -24 36 4 3 13 -4 22 -15 15 -20 17 -21 31 -4 12 16 12
17 -3 11 -12 -4 -23 1 -33 16 -8 12 -15 16 -15 9 0 -7 -4 -11 -9 -8 -12 8 -7
-24 5 -32 5 -4 16 -16 24 -27 13 -16 9 -15 -20 5 l-35 24 23 -26 c17 -19 20
-28 11 -33 -7 -5 -10 -4 -6 2 10 16 -22 25 -41 13 -14 -8 -14 -10 -2 -8 9 2
17 -1 19 -7 2 -6 -10 -9 -27 -7 -17 2 -33 -2 -38 -9 -5 -9 -2 -10 11 -5 15 5
16 4 5 -9 -11 -13 -16 -11 -42 18 -20 21 -25 24 -14 7 21 -32 20 -37 -5 -43
-13 -4 -18 -10 -13 -18 4 -7 3 -10 -4 -5 -5 3 -12 0 -15 -6 -3 -10 -8 -10 -18
1 -9 9 -9 11 -2 7 8 -5 13 -1 13 9 0 9 4 14 9 11 5 -3 15 1 22 10 10 12 10 15
-2 12 -8 -2 -13 3 -11 12 2 8 0 11 -5 7 -4 -5 -9 -13 -9 -18 -3 -22 -5 -23
-15 -9 -9 13 -10 12 -5 -3 4 -11 0 -17 -11 -17 -9 0 -14 -3 -10 -6 7 -8 -16
-33 -25 -28 -4 2 -10 0 -13 -6 -4 -6 -3 -9 2 -8 4 2 8 -1 8 -7 0 -5 -4 -9 -8
-7 -5 1 -6 -2 -2 -8 3 -6 11 -8 16 -5 13 9 23 -22 14 -42 -13 -28 -14 -44 -4
-37 5 3 6 10 3 16 -4 6 4 3 18 -8 23 -17 24 -20 9 -32 -9 -7 -10 -11 -4 -7 7
3 13 1 13 -5 0 -6 5 -8 12 -4 7 4 8 3 4 -4 -4 -6 -12 -10 -19 -8 -7 1 -9 1 -4
-1 4 -3 4 -9 1 -15 -4 -6 2 -5 15 1 11 7 21 16 21 21 0 6 8 2 18 -7 10 -10 15
-20 12 -23 -15 -13 -3 -35 19 -34 22 1 23 0 6 -12 -15 -11 -20 -11 -30 3 -10
13 -14 13 -20 3 -5 -9 -4 -11 3 -6 7 4 13 2 13 -3 1 -6 2 -15 3 -20 2 -17 17
-26 44 -27 42 -3 44 -3 36 -15 -4 -8 -9 -7 -15 2 -7 11 -9 11 -9 1 0 -7 -4
-11 -8 -8 -5 3 -9 -1 -9 -8 0 -8 7 -13 16 -11 9 1 20 -3 24 -9 6 -7 6 -4 3 8
-5 13 -2 17 9 13 8 -4 17 -1 21 5 4 7 3 8 -4 4 -7 -4 -12 -2 -12 4 0 7 5 10
12 8 7 -3 12 -16 13 -30 0 -15 3 -30 7 -34 4 -3 6 3 3 14 -2 12 1 25 7 28 7 4
8 2 4 -4 -4 -7 -3 -12 3 -12 6 0 7 -8 4 -17 -5 -14 -3 -13 14 3 11 10 18 23
15 28 -3 5 0 6 7 2 9 -6 9 -11 0 -22 -6 -8 -9 -17 -5 -21 3 -3 6 -1 6 5 0 6
10 9 22 7 12 -3 25 1 29 7 5 8 14 7 32 -5 24 -15 24 -15 23 15 -1 18 -8 34
-15 36 -9 3 -11 0 -6 -8 5 -8 4 -11 -3 -6 -6 3 -13 2 -17 -4 -4 -6 -11 -7 -17
-4 -7 5 -8 2 -3 -6 6 -9 4 -11 -5 -5 -9 5 -11 4 -6 -3 4 -7 5 -12 2 -12 -3 0
-10 9 -16 20 -9 16 -8 19 6 13 12 -4 15 -3 10 5 -4 7 -2 12 3 12 6 0 11 -5 11
-11 0 -5 4 -8 9 -5 5 4 8 17 7 29 -2 18 2 23 18 22 14 -1 20 -8 18 -21 -2 -18
-2 -18 12 -1 11 14 15 15 19 4 3 -8 0 -20 -6 -26 -6 -6 -7 -11 -1 -11 5 0 15
5 22 12 8 8 15 8 28 -3 16 -12 17 -12 11 4 -4 10 -7 20 -7 23 0 2 -6 1 -14 -2
-7 -3 -16 2 -20 12 -5 13 -4 14 7 6 8 -7 16 -9 20 -6 3 3 10 -4 16 -15 7 -12
18 -18 29 -15 9 2 7 -1 -5 -7 -25 -13 -30 -25 -10 -26 6 0 21 -4 32 -8 20 -7
20 -6 1 9 -11 9 -15 16 -9 16 6 0 16 -7 23 -15 9 -11 15 -13 20 -5 5 8 9 7 13
-3 4 -11 1 -15 -12 -12 -10 2 -24 -1 -32 -6 -10 -7 -5 -8 15 -5 22 4 29 1 34
-16 5 -21 6 -21 12 -2 4 10 4 27 -1 36 -6 10 -5 19 1 23 6 4 10 3 9 -2 -4 -21
2 -33 16 -33 8 0 15 5 15 12 0 6 3 8 6 5 4 -4 1 -13 -5 -21 -10 -12 -9 -15 8
-13 13 1 20 6 17 14 -3 7 0 15 6 19 7 4 8 3 4 -4 -9 -15 6 -16 20 -2 7 7 11 6
11 -4 0 -8 -5 -14 -10 -13 -5 1 -12 -5 -14 -13 -4 -13 -3 -13 6 0 6 8 11 11
11 6 0 -5 8 -2 17 5 15 12 16 12 10 -3 -3 -10 -1 -20 5 -24 7 -4 8 -3 4 4 -4
7 -2 12 4 12 6 0 9 4 6 9 -3 5 1 11 9 14 10 4 12 1 9 -11 -4 -11 2 -8 16 8 19
22 22 22 18 5 -2 -14 3 -20 19 -21 12 -1 20 2 18 6 -3 4 6 8 20 8 14 0 22 -5
19 -10 -4 -6 2 -7 17 -3 22 7 23 7 9 -11 -14 -18 -14 -18 3 -5 18 14 18 16 -5
34 -22 17 -22 18 -1 8 26 -13 36 -14 29 -3 -3 5 1 9 9 9 8 0 12 -4 10 -8 -3
-3 3 -13 12 -20 14 -12 16 -12 9 0 -7 10 -3 12 14 6 15 -5 20 -3 16 3 -3 6 -1
14 5 18 8 4 9 3 5 -4 -5 -8 1 -12 16 -13 17 -1 18 -3 6 -6 -10 -2 -18 -9 -18
-14 0 -6 7 -6 18 -1 9 5 25 8 35 7 9 -2 15 0 13 4 -3 4 20 7 50 8 38 1 52 -2
47 -11 -3 -6 -3 -8 2 -4 4 4 14 3 22 -4 7 -6 16 -8 20 -4 3 3 2 6 -4 6 -6 0
-19 12 -28 28 -18 26 -18 27 1 10 24 -21 35 -23 45 -6 7 10 9 10 9 1 0 -7 5
-13 11 -13 5 0 8 4 4 9 -3 5 0 13 7 17 7 4 10 4 6 -1 -4 -4 -3 -16 2 -26 7
-12 7 -20 0 -24 -5 -3 -10 -1 -10 6 0 7 -3 10 -6 6 -3 -3 -3 -11 1 -17 10 -17
35 8 29 28 -4 13 -2 13 11 -3 17 -20 17 -20 12 3 -4 18 -3 21 7 13 7 -6 16 -8
19 -4 4 3 13 0 22 -7 15 -12 20 -4 16 23 0 4 4 7 10 7 6 0 9 -6 6 -14 -10 -24
5 -26 24 -3 10 12 18 16 19 10 0 -7 -4 -13 -10 -13 -5 0 -10 -8 -10 -17 0 -15
2 -16 10 -3 9 13 10 13 11 0 0 -10 3 -8 9 5 7 17 9 17 9 3 1 -10 6 -18 12 -18
5 0 7 6 3 13 -5 8 -3 8 9 -2 9 -7 14 -18 10 -24 -3 -6 -1 -7 6 -3 9 6 8 13 -3
31 -10 15 -12 26 -6 30 6 4 9 1 8 -5 -2 -7 7 -14 20 -16 12 -2 22 1 22 7 0 5
5 7 11 3 8 -4 7 -9 -2 -15 -7 -4 -10 -11 -7 -14 4 -4 17 0 29 9 16 11 27 12
41 5 10 -5 22 -7 27 -4 5 3 21 1 35 -5 17 -6 27 -6 32 2 4 7 3 8 -4 4 -18 -11
-14 0 5 15 10 8 14 9 10 2 -4 -6 -2 -15 3 -18 7 -5 5 -12 -7 -22 -16 -14 -15
-14 7 -1 14 8 33 14 43 12 13 -2 17 2 13 12 -3 8 -2 12 3 9 5 -3 12 -1 16 5 9
15 25 12 25 -4 0 -10 11 -13 40 -11 27 2 38 0 34 -7 -4 -7 -2 -8 5 -4 6 4 9
12 6 17 -4 5 -2 9 4 9 5 0 13 -5 16 -10 8 -13 25 -3 25 13 0 7 -4 6 -10 -3 -5
-8 -10 -10 -10 -5 0 6 4 16 9 23 6 11 10 10 16 -5 5 -10 7 -25 6 -33 -1 -11 1
-10 9 3 6 9 15 15 20 12 5 -3 11 -1 15 5 3 5 16 15 28 20 20 10 21 10 4 -3
-15 -12 -15 -16 -3 -20 13 -5 29 18 31 45 1 19 12 15 11 -4 -1 -14 4 -22 12
-20 8 1 11 -2 7 -7 -3 -6 -13 -7 -22 -4 -15 6 -16 5 -3 -9 8 -9 17 -12 18 -7
2 5 8 9 13 9 6 0 7 -5 3 -12 -4 -7 -3 -8 5 -4 6 4 9 12 6 17 -3 5 2 6 11 2 10
-3 15 -2 12 3 -4 5 5 10 18 10 13 1 24 -2 24 -8 0 -5 -3 -7 -8 -4 -4 2 -16 -2
-27 -10 -10 -8 -13 -14 -6 -14 7 0 9 -5 5 -12 -4 -8 -3 -10 2 -5 5 5 9 14 9
20 0 18 58 15 72 -2 10 -14 11 -14 10 -1 -2 8 -6 21 -11 29 -7 11 -10 11 -17
0 -6 -10 -9 -10 -9 -2 0 21 17 23 38 3 15 -14 22 -16 26 -7 5 9 7 9 12 0 3 -7
10 -13 15 -13 6 0 8 4 5 8 -3 5 1 9 9 9 8 0 15 -4 15 -8 0 -4 7 -10 16 -13 10
-4 13 -2 8 6 -5 8 -2 9 9 5 11 -4 17 -1 17 8 0 9 6 12 15 9 8 -4 12 -11 8 -17
-3 -6 -1 -7 6 -3 9 6 9 11 -1 24 -11 13 -11 14 8 4 16 -9 21 -8 21 3 0 8 -3
12 -7 10 -4 -2 -7 2 -7 10 0 11 5 12 20 3 13 -7 17 -7 13 0 -4 6 4 20 16 31
15 15 17 21 7 21 -12 0 -12 2 1 10 8 5 15 15 15 22 0 7 8 13 18 14 11 1 12 0
3 -3 -8 -2 -12 -11 -9 -19 3 -8 0 -14 -5 -14 -6 0 -9 -9 -7 -20 2 -13 -2 -20
-11 -20 -8 0 -14 -4 -14 -10 0 -5 7 -7 15 -4 11 4 13 2 9 -9 -3 -8 -1 -17 4
-20 4 -3 8 10 7 29 -1 18 2 34 6 34 5 0 8 3 8 8 -3 20 2 33 11 27 6 -4 9 -1 8
7 -2 8 5 12 17 10 15 -2 17 -1 6 6 -11 8 -11 10 0 15 11 4 11 6 1 6 -7 1 -10
6 -7 11 5 8 12 7 23 -2 15 -12 16 -11 3 4 -7 10 -10 18 -6 18 4 0 3 6 -4 13
-8 10 -7 17 2 27 10 12 9 12 -5 1 -21 -15 -24 -2 -5 18 10 11 9 13 -1 7 -7 -4
-15 -1 -18 8 -8 20 -21 21 -21 1 0 -8 5 -11 11 -8 6 3 8 3 4 -2 -4 -4 -3 -16
2 -26 7 -12 7 -20 0 -24 -6 -4 -8 -10 -5 -15 3 -5 -3 -14 -12 -20 -13 -9 -14
-10 -2 -7 9 3 16 -1 16 -8 0 -11 -5 -11 -19 -4 -18 10 -18 12 -3 36 16 24 16
25 -2 19 -14 -4 -19 -1 -20 14 -1 11 3 20 8 20 6 0 7 -4 4 -10 -3 -5 1 -10 10
-10 10 0 14 5 11 13 -3 6 -9 20 -12 30 -4 9 -16 17 -28 17 -13 0 -26 3 -30 7
-11 11 -36 12 -36 1 0 -5 -7 -2 -16 6 -8 9 -21 13 -27 9 -7 -3 -9 -2 -4 2 10
11 68 14 61 3 -3 -5 -2 -8 3 -7 4 1 10 1 13 -1 12 -4 54 -8 42 -4 -6 3 -9 11
-5 17 4 7 1 7 -9 -1 -10 -8 -19 -9 -22 -3 -3 5 -3 11 1 14 5 2 2 2 -4 1 -7 -2
-17 5 -22 14 -7 11 -11 12 -11 4 0 -7 -5 -10 -12 -6 -7 4 -8 3 -4 -4 4 -7 2
-12 -3 -12 -6 0 -11 5 -11 10 0 6 -5 10 -11 10 -5 0 -7 -5 -4 -10 4 -7 -6 -10
-25 -8 -19 1 -36 10 -42 21 -7 15 -12 16 -24 6 -8 -6 -15 -8 -15 -3 -1 5 -2
14 -4 19 -1 6 -3 16 -3 23 -1 6 -7 12 -13 12 -8 0 -9 -4 0 -13 14 -18 2 -30
-16 -16 -11 10 -11 15 -1 27 11 13 11 14 -1 8 -17 -11 -33 13 -25 38 4 13 3
16 -6 11 -9 -5 -11 -4 -6 4 4 6 12 9 17 6 5 -4 9 -1 9 4 0 6 -6 11 -14 11 -15
0 -16 16 -3 37 5 7 5 18 1 25 -4 7 -3 8 5 4 6 -4 14 0 17 8 3 9 10 14 14 11 4
-3 10 2 14 10 3 8 12 15 21 15 8 0 15 5 15 11 0 8 6 7 17 -2 11 -10 14 -10 9
-1 -4 7 -2 12 5 12 7 0 10 3 6 6 -9 9 30 47 42 40 5 -4 15 4 21 16 10 22 10
22 -4 4 -14 -18 -15 -18 -13 3 1 13 8 21 19 21 21 0 24 16 6 23 -7 3 -2 6 11
6 24 1 24 1 5 16 -13 11 -14 13 -3 9 10 -3 19 1 22 10 4 11 1 13 -11 9 -14 -6
-15 -5 -2 9 8 9 18 14 23 11 12 -7 8 12 -5 25 -10 10 -7 16 10 28 12 8 22 21
21 27 0 9 -2 9 -6 0 -10 -27 -18 -11 -15 28 4 33 1 40 -9 35 -8 -4 -3 2 11 14
20 18 21 21 6 18 -10 -1 -21 3 -24 11 -2 8 0 11 5 8 5 -3 10 3 10 14 2 17 -1
18 -13 9 -17 -15 -19 1 -1 19 10 10 9 11 -4 6 -13 -5 -16 -1 -14 19 2 14 -1
28 -6 32 -5 3 -6 10 -3 16 5 7 1 9 -9 5 -9 -3 -19 -2 -22 4 -4 5 -3 9 2 8 20
-3 34 2 28 11 -3 6 0 10 7 10 8 1 6 6 -6 15 -18 13 -16 14 18 10 35 -5 36 -4
25 18 -12 22 -12 22 9 4 15 -14 22 -15 28 -6 5 8 3 10 -6 4 -9 -6 -10 -1 -5
16 4 17 3 20 -3 10 -6 -8 -12 -9 -16 -3 -3 5 1 13 10 16 8 3 12 11 8 17 -4 8
-3 9 5 5 6 -4 9 -12 6 -17 -4 -5 -1 -9 5 -9 6 0 8 -5 4 -12 -4 -7 -3 -8 4 -4
6 4 9 13 6 21 -4 9 3 18 17 24 21 9 22 10 4 11 l-20 1 20 12 c11 6 22 12 25
12 3 0 15 6 26 13 12 6 25 8 29 4 5 -4 5 -2 1 5 -4 7 -14 9 -22 6 -14 -5 -14
-3 -3 16 8 11 18 21 23 21 6 0 1 7 -10 15 -12 10 -14 14 -4 12 8 -2 11 -2 7 1
-4 2 -2 11 5 20 10 12 10 14 1 8 -19 -11 -15 5 5 21 15 12 13 12 -11 2 -15 -7
-25 -14 -22 -17 3 -3 -1 -12 -8 -20 -6 -9 -7 -13 -1 -9 16 10 10 -33 -7 -44
-12 -7 -12 -9 1 -9 13 0 13 -1 0 -10 -11 -7 -11 -10 -2 -10 7 0 10 -5 6 -11
-4 -8 -9 -7 -15 2 -5 8 -9 10 -9 6 0 -5 -7 -1 -16 8 -15 15 -15 17 0 34 9 10
13 21 9 26 -5 4 -2 5 5 1 6 -4 12 -2 12 3 0 18 -5 26 -13 23 -5 -1 -5 2 -2 8
4 6 10 9 13 6 3 -4 16 4 29 16 17 16 20 24 12 35 -6 7 -8 13 -4 13 4 0 2 7 -5
15 -13 15 -2 21 16 8 5 -5 3 -1 -6 7 -19 19 -24 46 -10 55 5 3 10 13 10 22 0
9 8 26 18 37 17 21 17 21 -4 3 -18 -15 -22 -16 -27 -3 -3 8 -3 17 1 20 3 4 7
13 9 21 2 8 5 23 6 32 2 9 9 19 16 21 9 3 9 7 0 18 -9 12 -9 13 4 9 8 -4 19 0
23 7 9 13 10 18 13 41 1 9 3 9 10 -2 6 -9 11 -10 15 -2 4 6 2 11 -4 11 -6 0
-8 6 -5 13 4 6 -3 1 -14 -12 -12 -12 -19 -27 -16 -31 3 -5 1 -11 -4 -15 -6 -3
-8 4 -5 17 3 13 6 28 6 35 1 7 5 10 9 8 4 -3 9 2 13 10 3 9 12 12 23 9 13 -4
14 -3 5 3 -18 14 -23 53 -8 59 15 6 16 21 2 42 -5 8 -2 20 7 30 26 29 9 99
-21 87 -13 -5 -12 -2 2 14 10 11 22 18 27 16 4 -3 11 0 15 7 4 7 4 10 -1 6
-10 -9 -37 11 -30 22 2 4 -4 15 -14 24 -14 13 -21 14 -27 5 -5 -8 -3 -10 6 -4
9 6 11 4 5 -5 -6 -9 -4 -11 5 -5 9 6 11 4 5 -5 -5 -9 -4 -11 3 -6 8 5 10 2 6
-8 -4 -10 -1 -16 7 -16 15 0 3 -13 -15 -16 -9 -1 -12 5 -8 19 3 14 1 18 -7 13
-7 -5 -10 -2 -9 6 2 7 -2 12 -8 11 -6 -1 -11 4 -11 12 0 8 4 12 8 10 6 -4 15
15 24 53 3 10 0 10 -10 2 -7 -6 -26 -13 -42 -16 -19 -3 -24 -2 -14 5 11 7 9
10 -8 16 -11 3 -21 11 -21 17 0 7 5 6 15 -2 8 -6 20 -8 26 -4 8 5 9 3 4 -6 -6
-9 -4 -11 5 -5 9 6 11 4 5 -6 -8 -12 -6 -12 8 0 18 15 23 26 7 16 -5 -3 -10
-1 -10 5 0 7 -7 9 -16 6 -8 -3 -13 -2 -10 3 3 5 -1 14 -9 21 -8 7 -12 17 -8
23 3 6 1 7 -5 3 -7 -4 -12 -3 -12 2 0 17 13 22 29 10 12 -10 12 -7 -2 8 -9 11
-15 23 -12 25 2 3 -5 5 -16 5 -17 0 -18 -2 -5 -11 13 -10 13 -13 -2 -28 -11
-12 -12 -17 -4 -17 8 0 10 -5 6 -12 -5 -7 -3 -8 7 -3 12 8 12 6 0 -8 -7 -9
-19 -17 -25 -17 -7 0 -6 4 2 9 11 7 11 11 -2 24 -18 17 -21 32 -6 22 6 -3 10
1 10 9 0 10 -6 13 -15 10 -8 -4 -15 -11 -15 -17 0 -6 -3 -7 -6 -4 -4 4 -1 13
6 22 8 9 9 15 2 15 -6 0 -16 -8 -21 -17 -6 -10 -11 -13 -11 -7 0 5 5 15 12 22
16 16 -4 16 -21 0 -11 -10 -13 -10 -7 0 7 11 -5 17 -27 13 -5 -1 -6 3 -2 9 3
5 1 10 -4 10 -6 0 -11 5 -11 12 0 6 7 4 18 -5 10 -10 22 -14 25 -10 4 3 7 0 7
-7 0 -9 6 -8 20 5 18 16 20 16 20 2 0 -10 5 -17 10 -17 7 0 7 7 0 21 -9 16
-14 18 -25 9 -17 -14 -33 -5 -45 24 -7 17 -9 18 -9 3 -1 -10 -6 -15 -12 -12
-6 4 -8 13 -5 21 4 11 1 12 -13 4 -11 -5 -21 -15 -23 -21 -2 -7 -12 3 -21 22
-9 19 -17 28 -17 21 0 -7 -4 -10 -10 -7 -6 3 -7 -1 -4 -9 3 -9 9 -14 12 -13 4
1 8 -1 10 -5 5 -17 1 -20 -13 -8 -8 7 -23 9 -32 6 -10 -4 -14 -4 -11 0 9 8 -9
44 -22 44 -6 0 -10 -5 -10 -11 0 -5 4 -7 10 -4 5 3 7 0 4 -9 -5 -13 -43 -19
-42 -6 1 17 -4 20 -21 10 -12 -6 -22 -6 -26 -1 -3 6 -14 8 -25 6 -13 -3 -18 0
-14 7 5 8 1 9 -11 5 -17 -7 -17 -6 -1 18 9 14 12 25 6 25 -5 0 -10 -5 -10 -12
0 -9 -3 -9 -12 0 -16 16 -25 15 -32 -4 -5 -14 -4 -15 8 -5 10 8 16 9 21 1 3
-5 0 -10 -7 -11 -7 0 -21 -2 -31 -4 -10 -2 -14 1 -10 8 4 7 0 8 -12 4 -11 -5
-32 1 -54 14 -20 11 -33 18 -29 14 4 -4 3 -16 -3 -27 -9 -16 -13 -17 -26 -6
-17 14 -86 12 -91 -3 -6 -14 -19 -10 -19 6 0 8 4 12 9 9 4 -3 8 0 8 5 0 15
-13 14 -29 -1 -16 -17 -62 -17 -79 -1 -7 7 -19 10 -27 6 -11 -4 -14 0 -9 13 5
14 4 16 -5 8 -17 -15 -3 -48 14 -34 14 11 33 -5 21 -17 -3 -4 -6 -1 -6 7 0 10
-3 10 -14 1 -9 -8 -16 -8 -20 -2 -8 12 -46 10 -46 -2 0 -5 -6 -5 -12 0 -7 6
-21 9 -31 8 -9 -2 -15 1 -11 6 3 5 0 9 -5 9 -6 0 -11 -4 -11 -9 0 -12 -64 -3
-68 9 -5 15 -42 33 -42 20 0 -5 7 -10 15 -10 8 0 15 -8 15 -17 0 -12 -3 -14
-8 -6 -5 8 -13 9 -22 3 -9 -6 -25 -3 -45 9 -16 9 -40 17 -52 16 -13 -1 -23 2
-23 8 0 5 -7 4 -15 -3 -8 -7 -15 -18 -14 -24 0 -7 2 -6 6 2 2 6 9 12 14 12 6
0 7 -6 3 -12 -6 -10 -4 -10 8 0 13 10 17 10 21 -1 4 -10 -2 -13 -19 -11 -13 1
-24 -3 -24 -9 0 -8 -3 -8 -8 -2 -9 13 -46 19 -38 7 3 -6 0 -9 -6 -7 -40 10
-57 18 -52 26 3 5 0 9 -6 9 -6 0 -8 6 -4 13 4 6 -2 4 -12 -6 -14 -13 -16 -20
-6 -25 7 -5 -7 -8 -32 -8 -37 1 -43 4 -40 19 1 10 -1 15 -7 12 -5 -4 -9 -13
-9 -22 0 -12 -3 -13 -14 -4 -9 8 -16 8 -20 2 -4 -5 1 -14 10 -19 15 -8 15 -10
0 -15 -10 -4 -15 -3 -12 2 3 4 -4 17 -15 27 -11 10 -18 23 -15 29 2 6 -6 11
-19 11 -13 0 -21 -4 -19 -8z m405 -22 c14 8 11 -2 -4 -14 -10 -8 -13 -6 -14
11 0 12 1 16 4 9 3 -6 9 -10 14 -6z m588 -9 c8 -10 7 -14 -2 -14 -8 0 -14 6
-14 14 0 7 1 13 2 13 2 0 8 -6 14 -13z m-1069 -1 c0 -3 -4 -8 -10 -11 -5 -3
-10 -1 -10 4 0 6 5 11 10 11 6 0 10 -2 10 -4z m10 -21 c-7 -8 -17 -15 -23 -15
-6 0 -2 7 9 15 25 19 30 19 14 0z m55 -5 c-3 -5 -12 -10 -18 -10 -7 0 -6 4 3
10 19 12 23 12 15 0z m1409 -39 c3 -5 -1 -14 -8 -20 -12 -10 -13 -8 -9 8 6 23
9 25 17 12z m-2177 -35 c-12 -13 -16 -13 -20 -2 -7 18 14 39 26 27 6 -6 4 -16
-6 -25z m-84 -39 c4 3 7 1 7 -5 0 -7 -4 -12 -10 -12 -5 0 -13 0 -17 0 -5 0 -8
3 -8 8 0 4 -4 14 -9 22 -7 10 -3 10 11 -3 11 -9 23 -14 26 -10z m-73 -92 c0
-2 -6 -5 -13 -8 -8 -3 -14 1 -14 8 0 7 6 11 14 8 7 -3 13 -6 13 -8z m2560 -40
c-7 -8 -22 -14 -34 -14 -20 1 -20 2 -1 6 11 3 24 9 30 14 15 14 19 10 5 -6z
m-2580 -37 c0 -19 -16 -5 -17 14 -2 18 0 20 7 8 5 -8 10 -18 10 -22z m2638
-163 c-3 -3 -9 2 -12 12 -6 14 -5 15 5 6 7 -7 10 -15 7 -18z m-108 -401 c0 -8
-19 -13 -24 -6 -3 5 1 9 9 9 8 0 15 -2 15 -3z m-14 -74 c1 -16 -3 -30 -10 -30
-6 -1 0 -7 13 -14 l24 -13 -21 -12 c-14 -8 -22 -8 -22 -1 0 5 6 10 13 10 8 0
7 3 -3 9 -8 6 -17 8 -21 5 -4 -2 -11 1 -15 8 -4 7 -4 10 1 6 14 -13 34 12 29
38 -2 13 -1 24 3 24 5 0 9 -13 9 -30z m-2404 -68 c-10 -3 -10 -7 0 -20 11 -15
11 -15 -3 -5 -9 7 -18 11 -21 8 -2 -3 -5 2 -5 10 0 8 4 12 9 9 4 -3 8 0 8 6 0
6 5 8 12 4 9 -6 9 -9 0 -12z m2353 -142 c-3 -5 0 -10 7 -10 8 0 6 -5 -5 -11
-9 -6 -15 -14 -12 -20 4 -5 1 -9 -4 -9 -6 0 -10 8 -8 18 3 19 16 42 23 42 3 0
2 -4 -1 -10z m-2315 -50 c-13 -8 -12 -10 5 -11 11 -1 23 -1 28 0 12 2 8 -17
-4 -21 -8 -3 -6 -10 5 -21 10 -9 14 -17 9 -17 -4 0 -20 15 -35 34 -26 32 -27
46 -4 46 6 0 4 -5 -4 -10z m110 -80 c0 -5 -2 -10 -4 -10 -3 0 -8 5 -11 10 -3
6 -1 10 4 10 6 0 11 -4 11 -10z m220 -630 c0 -5 -5 -10 -11 -10 -5 0 -7 5 -4
10 3 6 8 10 11 10 2 0 4 -4 4 -10z m1435 0 c10 16 25 2 22 -20 -4 -22 -35 -60
-50 -60 -6 0 0 11 13 25 13 14 22 25 19 26 -2 0 -12 2 -21 4 -10 2 -18 -1 -18
-6 0 -6 -4 -8 -9 -5 -13 9 -33 -21 -28 -41 4 -14 5 -13 6 5 0 13 5 21 10 17 5
-3 12 -1 16 5 3 5 12 10 18 10 7 -1 2 -9 -10 -19 -13 -11 -23 -21 -23 -24 0
-2 23 -3 50 -2 28 1 53 -2 56 -7 3 -4 -2 -8 -11 -8 -9 0 -13 -5 -9 -11 3 -6
-5 -3 -20 6 -17 11 -26 13 -26 6 0 -7 -5 -9 -12 -4 -7 4 -21 8 -30 9 -10 1
-22 2 -28 3 -5 0 -10 9 -10 19 0 10 -3 22 -7 26 -9 9 -13 36 -5 37 4 1 20 3
36 5 15 1 31 5 34 8 3 3 11 1 18 -5 8 -7 14 -7 19 1z m-1395 -4 c0 -2 -7 -7
-16 -10 -8 -3 -12 -2 -9 4 6 10 25 14 25 6z m200 -19 c0 -11 3 -17 8 -13 4 4
7 13 7 19 0 15 25 17 43 4 7 -6 10 -18 6 -31 -7 -21 -6 -21 15 -2 16 15 18 21
9 28 -8 4 -8 8 -2 8 21 0 24 -14 7 -32 -18 -20 -5 -25 16 -5 11 10 12 9 6 -2
-6 -11 -4 -13 11 -8 18 7 18 6 2 -6 -10 -8 -14 -18 -10 -23 4 -4 0 -3 -9 4
-27 21 -61 23 -74 5 -11 -14 -12 -14 -12 1 0 9 5 16 10 16 6 0 8 2 5 5 -8 8
-39 -6 -33 -15 6 -10 -21 -7 -31 3 -18 18 -25 4 -8 -15 l19 -22 -26 20 c-25
18 -26 19 -8 32 11 7 17 18 14 23 -9 13 1 26 20 26 8 0 15 -9 15 -20z m969 3
c-16 -11 -21 -43 -6 -37 7 3 11 9 10 15 -2 6 4 9 12 6 10 -4 13 0 10 16 -4 20
-3 21 13 8 9 -8 29 -13 43 -12 14 1 26 -3 26 -9 0 -7 3 -19 5 -27 3 -8 3 -12
1 -7 -3 4 -9 5 -14 1 -5 -3 -8 0 -7 7 2 6 -3 14 -11 17 -8 2 -11 0 -7 -6 3 -6
-1 -9 -11 -7 -10 1 -24 -3 -32 -9 -11 -8 -13 -8 -7 2 9 15 -6 16 -22 0 -8 -8
-15 -8 -24 0 -9 7 -19 7 -28 2 -10 -6 -21 -4 -32 7 -17 15 -19 15 -36 0 -10
-10 -22 -14 -25 -10 -4 3 -7 1 -7 -6 0 -7 -9 -3 -21 10 -14 17 -19 19 -15 7 3
-10 1 -20 -4 -23 -4 -3 -7 6 -5 20 2 26 15 48 15 27 0 -7 5 -12 11 -12 5 0 8
4 5 9 -7 10 20 9 30 -2 15 -15 26 -6 13 11 -12 15 -12 16 2 5 9 -7 19 -10 22
-6 4 3 7 0 7 -7 0 -9 4 -8 13 4 12 16 14 16 14 2 0 -9 -4 -16 -9 -16 -5 0 -7
-4 -3 -10 10 -16 33 0 28 21 -3 10 0 19 6 19 5 0 8 -8 5 -17 -4 -14 -1 -13 13
3 10 12 22 19 27 17 4 -3 2 -9 -5 -13z m101 14 c0 -8 -19 -13 -24 -6 -3 5 1 9
9 9 8 0 15 -2 15 -3z m185 -25 c-3 -21 0 -27 11 -22 7 3 14 0 14 -6 0 -6 -3
-10 -7 -10 -5 1 -10 0 -13 -1 -21 -8 -40 -6 -40 3 0 7 -5 5 -10 -3 -5 -8 -10
-10 -10 -4 0 6 7 17 15 24 8 7 12 16 9 21 -3 5 0 9 6 9 6 0 9 4 6 8 -3 5 1 9
9 9 9 0 12 -10 10 -28z m-1107 13 c15 12 16 11 3 -4 -14 -19 -32 -15 -30 5 0
8 2 8 6 -1 4 -10 8 -10 21 0z m289 -7 c0 -8 -3 -13 -5 -10 -3 3 -10 0 -17 -5
-8 -7 -12 -5 -12 5 0 8 4 12 8 9 4 -2 10 0 14 6 9 14 12 13 12 -5z m247 -7
c-1 -13 -3 -26 -3 -30 -1 -5 -24 -4 -41 2 -3 1 -9 2 -13 1 -5 -1 -6 3 -2 9 5
8 11 7 21 -1 11 -9 14 -9 14 0 0 7 5 9 12 5 7 -4 8 -3 4 5 -4 6 -12 9 -17 6
-5 -4 -9 -2 -9 4 0 5 8 12 18 14 9 3 17 5 18 6 0 0 0 -9 -2 -21z m-1094 2 c0
-5 -4 -10 -10 -10 -5 0 -10 5 -10 10 0 6 5 10 10 10 6 0 10 -4 10 -10z m355
-9 c-3 -6 -11 -11 -16 -11 -5 0 -4 6 3 14 14 16 24 13 13 -3z m424 5 c9 -11 9
-16 -1 -22 -7 -4 -10 -4 -6 1 4 4 3 14 -3 22 -6 7 -9 13 -6 13 2 0 10 -6 16
-14z m351 4 c0 -5 -4 -10 -10 -10 -5 0 -10 5 -10 10 0 6 5 10 10 10 6 0 10 -4
10 -10z m36 -6 c-17 -12 -22 -29 -6 -19 6 3 10 2 10 -3 0 -14 -28 -23 -35 -12
-4 6 -11 10 -16 10 -6 0 -7 -5 -3 -12 4 -7 3 -8 -5 -4 -15 10 -3 29 15 22 12
-5 18 4 16 24 0 3 8 6 19 6 18 0 18 -2 5 -12z m-559 -21 c0 -9 -4 -10 -14 -2
-7 6 -13 12 -13 14 0 1 6 2 13 2 8 0 14 -6 14 -14z m40 -6 c1 -11 1 -18 0 -16
-2 2 -8 11 -15 20 -9 12 -9 16 1 16 7 0 14 -9 14 -20z m38 5 c-3 -3 -11 0 -18
7 -9 10 -8 11 6 5 10 -3 15 -9 12 -12z m41 2 c-1 -8 -6 -17 -12 -21 -5 -4 -6
-4 -2 1 4 5 3 14 -2 21 -7 8 -5 12 4 12 8 0 13 -6 12 -13z m-145 -21 c13 -16
12 -17 -3 -4 -10 7 -18 15 -18 17 0 8 8 3 21 -13z m1109 -7 c0 -3 -4 -8 -10
-11 -5 -3 -10 -1 -10 4 0 6 5 11 10 11 6 0 10 -2 10 -4z m-1976 -124 c2 -4 -4
-9 -15 -9 -11 -1 -17 2 -14 8 7 11 22 12 29 1z m2416 -72 c0 -5 -2 -10 -4 -10
-3 0 -8 5 -11 10 -3 6 -1 10 4 10 6 0 11 -4 11 -10z m74 -59 c3 -5 -1 -14 -8
-20 -12 -10 -14 -9 -11 6 2 10 4 19 4 21 2 5 10 2 15 -7z m-2414 -31 c0 -5 -2
-10 -4 -10 -3 0 -8 5 -11 10 -3 6 -1 10 4 10 6 0 11 -4 11 -10z m25 -40 c-3
-5 -12 -10 -18 -10 -7 0 -6 4 3 10 19 12 23 12 15 0z m25 -30 c-6 -11 -12 -20
-14 -20 -2 0 -2 9 1 20 3 11 9 20 15 20 5 0 4 -9 -2 -20z m140 -10 c-8 -5 -19
-10 -25 -10 -5 0 -3 5 5 10 8 5 20 10 25 10 6 0 3 -5 -5 -10z m27 -20 c1 -11
-2 -20 -7 -20 -6 0 -7 17 -1 38 3 8 7 -1 8 -18z m160 -2 c2 -17 0 -19 -7 -8
-5 8 -6 18 -4 22 8 12 10 10 11 -14z m-357 1 c0 -5 5 -7 12 -3 6 4 8 3 5 -4
-6 -8 -19 -9 -45 -3 -2 1 0 6 3 11 8 13 25 13 25 -1z m115 1 c4 -6 3 -10 -2
-9 -21 4 -24 -2 -12 -18 13 -16 12 -17 -4 -4 -13 10 -15 17 -6 27 14 17 16 17
24 4z m-60 -10 c3 -6 -1 -7 -9 -4 -18 7 -21 14 -7 14 6 0 13 -4 16 -10z m105
-11 c12 -8 10 -9 -9 -4 -13 4 -21 3 -18 -2 3 -5 1 -15 -4 -23 -7 -11 -8 -8 -5
10 3 14 5 26 5 28 2 5 17 1 31 -9z m1691 -13 c-6 -8 -10 -19 -9 -26 2 -7 -5
-14 -15 -15 -15 -3 -15 0 4 26 11 16 23 29 26 29 3 0 0 -6 -6 -14z m105 -12
c1 -9 0 -13 -4 -10 -3 4 -7 14 -8 22 -1 9 0 13 4 10 3 -4 7 -14 8 -22z m-1522
5 c3 -3 -4 -5 -14 -6 -11 -1 -20 2 -20 7 0 8 25 8 34 -1z m316 5 c0 -8 -19
-13 -24 -6 -3 5 1 9 9 9 8 0 15 -2 15 -3z m1070 -3 c0 -6 -4 -12 -8 -15 -5 -3
-9 1 -9 9 0 8 4 15 9 15 4 0 8 -4 8 -9z m400 5 c0 -3 -4 -8 -10 -11 -5 -3 -10
-1 -10 4 0 6 5 11 10 11 6 0 10 -2 10 -4z m-589 -29 c-10 -9 -11 -8 -5 6 3 10
9 15 12 12 3 -3 0 -11 -7 -18z m109 13 c-8 -5 -11 -10 -5 -10 5 0 4 -5 -3 -12
-15 -15 -49 -20 -57 -8 -3 5 7 8 22 7 16 -1 28 3 29 11 2 20 4 22 17 22 8 0 7
-4 -3 -10z m-1136 -8 c3 -5 -1 -9 -9 -9 -8 0 -12 4 -9 9 3 4 7 8 9 8 2 0 6 -4
9 -8z m111 -10 c-3 -3 -11 0 -18 7 -9 10 -8 11 6 5 10 -3 15 -9 12 -12z m800
8 c3 -5 1 -10 -4 -10 -6 0 -11 5 -11 10 0 6 2 10 4 10 3 0 8 -4 11 -10z
m-1270 -10 c3 -6 -1 -7 -9 -4 -18 7 -21 14 -7 14 6 0 13 -4 16 -10z m755 6 c0
-2 -8 -10 -17 -17 -16 -13 -17 -12 -4 4 13 16 21 21 21 13z m1200 0 c0 -2 -7
-7 -16 -10 -8 -3 -12 -2 -9 4 6 10 25 14 25 6z m-1527 -21 c-3 -9 -8 -14 -10
-11 -3 3 -2 9 2 15 9 16 15 13 8 -4z m235 -10 c-3 -3 -9 2 -12 12 -6 14 -5 15
5 6 7 -7 10 -15 7 -18z m582 19 c0 -8 -19 -13 -24 -6 -3 5 1 9 9 9 8 0 15 -2
15 -3z m98 -8 c-7 -8 -15 -12 -17 -11 -5 6 10 25 20 25 5 0 4 -6 -3 -14z"/>
<path d="M2235 991 c-11 -5 -27 -6 -35 -4 -13 4 -13 4 0 -6 12 -9 13 -11 1
-11 -8 0 -12 -2 -9 -5 3 -3 18 1 33 9 16 8 33 12 38 9 6 -3 7 -1 3 5 -4 7 -8
12 -9 11 -1 0 -11 -4 -22 -8z"/>
<path d="M2285 990 c-3 -5 -1 -10 4 -10 6 0 11 5 11 10 0 6 -2 10 -4 10 -3 0
-8 -4 -11 -10z"/>
<path d="M1063 965 c1 -16 7 -29 12 -28 16 3 16 18 1 38 -14 19 -15 18 -13
-10z"/>
<path d="M1114 983 c3 -4 1 -11 -4 -18 -7 -8 -3 -11 13 -10 27 2 30 27 4 31
-11 1 -16 0 -13 -3z"/>
<path d="M2093 966 c0 -15 22 -15 34 0 4 5 4 6 -1 2 -5 -4 -14 -3 -21 2 -8 7
-12 5 -12 -4z"/>
<path d="M1906 963 c-11 -11 -7 -20 9 -20 8 0 15 4 15 8 0 11 -16 20 -24 12z"/>
<path d="M2310 946 c0 -2 7 -7 16 -10 8 -3 12 -2 9 4 -6 10 -25 14 -25 6z"/>
<path d="M1556 2947 c3 -10 9 -15 12 -12 3 3 0 11 -7 18 -10 9 -11 8 -5 -6z"/>
<path d="M1836 2947 c3 -10 9 -15 12 -12 3 3 0 11 -7 18 -10 9 -11 8 -5 -6z"/>
<path d="M1956 2944 c-8 -20 -8 -24 2 -24 4 0 8 9 9 20 2 24 -3 26 -11 4z"/>
<path d="M1986 2945 c-9 -26 -7 -32 5 -12 6 10 9 21 6 23 -2 3 -7 -2 -11 -11z"/>
<path d="M2050 2957 c0 -3 12 -12 26 -22 15 -9 23 -12 20 -6 -7 11 -46 35 -46
28z"/>
<path d="M2106 2952 c-3 -5 1 -9 9 -9 8 0 15 4 15 9 0 4 -4 8 -9 8 -6 0 -12
-4 -15 -8z"/>
<path d="M1112 2936 c7 -8 15 -12 17 -11 5 6 -10 25 -20 25 -5 0 -4 -6 3 -14z"/>
<path d="M1381 2941 c-8 -5 -9 -11 -3 -15 5 -3 12 1 16 9 6 17 6 18 -13 6z"/>
<path d="M1591 2933 c-7 -8 -11 -16 -8 -19 2 -2 10 2 17 11 17 20 9 27 -9 8z"/>
<path d="M1771 2934 c0 -11 3 -14 6 -6 3 7 2 16 -1 19 -3 4 -6 -2 -5 -13z"/>
<path d="M1885 2940 c-3 -6 1 -7 9 -4 18 7 21 14 7 14 -6 0 -13 -4 -16 -10z"/>
<path d="M2353 2935 c0 -8 4 -12 9 -9 5 3 6 10 3 15 -9 13 -12 11 -12 -6z"/>
<path d="M1031 2924 c9 -12 9 -13 -3 -9 -9 4 -18 -1 -22 -12 -6 -14 -4 -15 5
-6 6 6 18 9 25 6 8 -3 14 0 14 6 0 6 1 14 3 18 1 3 -6 7 -16 9 -15 2 -16 0 -6
-12z"/>
<path d="M2265 2931 c-3 -5 -2 -12 3 -15 5 -3 9 1 9 9 0 17 -3 19 -12 6z"/>
<path d="M2595 2930 c3 -5 8 -10 11 -10 2 0 4 5 4 10 0 6 -5 10 -11 10 -5 0
-7 -4 -4 -10z"/>
<path d="M2487 2923 c-18 -5 -20 -24 -2 -25 6 0 16 -5 24 -11 12 -10 13 -9 6
2 -6 11 -4 13 8 8 11 -4 14 -2 10 9 -4 12 -8 12 -21 2 -13 -11 -15 -10 -9 5 3
9 5 16 4 16 -1 -1 -10 -3 -20 -6z"/>
<path d="M897 2908 c2 -5 13 -8 23 -8 10 0 21 3 23 8 3 4 -8 7 -23 7 -15 0
-26 -3 -23 -7z"/>
<path d="M634 2899 c-3 -6 -2 -15 3 -20 5 -5 9 -1 9 11 0 23 -2 24 -12 9z"/>
<path d="M730 2895 c-7 -9 -8 -15 -2 -15 5 0 12 7 16 15 3 8 4 15 2 15 -2 0
-9 -7 -16 -15z"/>
<path d="M860 2906 c0 -2 7 -7 16 -10 8 -3 12 -2 9 4 -6 10 -25 14 -25 6z"/>
<path d="M754 2878 l-19 -23 23 19 c21 18 27 26 19 26 -2 0 -12 -10 -23 -22z"/>
<path d="M791 2897 c2 -2 11 -8 20 -15 12 -9 16 -9 16 1 0 7 -9 14 -20 14 -11
1 -18 1 -16 0z"/>
<path d="M2550 2896 c0 -2 7 -9 15 -16 13 -11 14 -10 9 4 -5 14 -24 23 -24 12z"/>
<path d="M2695 2880 c-3 -6 1 -7 9 -4 18 7 21 14 7 14 -6 0 -13 -4 -16 -10z"/>
<path d="M595 2870 c3 -5 8 -10 11 -10 2 0 4 5 4 10 0 6 -5 10 -11 10 -5 0 -7
-4 -4 -10z"/>
<path d="M435 2850 c-3 -5 -1 -10 4 -10 6 0 11 5 11 10 0 6 -2 10 -4 10 -3 0
-8 -4 -11 -10z"/>
<path d="M490 2846 c7 -7 13 -7 20 0 6 6 3 10 -10 10 -13 0 -16 -4 -10 -10z"/>
<path d="M589 2833 c-13 -16 -12 -17 4 -4 16 13 21 21 13 21 -2 0 -10 -8 -17
-17z"/>
<path d="M380 2809 c0 -5 5 -7 10 -4 6 3 10 8 10 11 0 2 -4 4 -10 4 -5 0 -10
-5 -10 -11z"/>
<path d="M356 2784 c-3 -9 -2 -22 2 -31 6 -10 9 -5 9 16 0 35 -2 38 -11 15z"/>
<path d="M2935 2750 c-3 -5 -1 -10 4 -10 6 0 11 5 11 10 0 6 -2 10 -4 10 -3 0
-8 -4 -11 -10z"/>
<path d="M336 2732 c-3 -5 1 -9 9 -9 8 0 12 4 9 9 -3 4 -7 8 -9 8 -2 0 -6 -4
-9 -8z"/>
<path d="M2900 2736 c0 -2 8 -10 18 -17 15 -13 16 -12 3 4 -13 16 -21 21 -21
13z"/>
<path d="M315 2630 c3 -5 8 -10 11 -10 2 0 4 5 4 10 0 6 -5 10 -11 10 -5 0 -7
-4 -4 -10z"/>
<path d="M2975 2630 c3 -5 8 -10 11 -10 2 0 4 5 4 10 0 6 -5 10 -11 10 -5 0
-7 -4 -4 -10z"/>
<path d="M322 2535 c-7 -8 -9 -15 -4 -15 5 0 15 7 22 15 16 19 -1 19 -18 0z"/>
<path d="M320 2500 c-9 -6 -10 -10 -3 -10 6 0 15 5 18 10 8 12 4 12 -15 0z"/>
<path d="M3028 2393 c7 -3 16 -2 19 1 4 3 -2 6 -13 5 -11 0 -14 -3 -6 -6z"/>
<path d="M3015 2350 c3 -5 8 -10 11 -10 2 0 4 5 4 10 0 6 -5 10 -11 10 -5 0
-7 -4 -4 -10z"/>
<path d="M2993 2335 c0 -8 4 -12 9 -9 5 3 6 10 3 15 -9 13 -12 11 -12 -6z"/>
<path d="M3030 2319 c0 -5 -5 -7 -12 -3 -7 4 -8 3 -4 -5 6 -9 11 -9 22 0 17
14 18 19 4 19 -5 0 -10 -5 -10 -11z"/>
<path d="M350 2295 c0 -8 4 -15 10 -15 5 0 7 7 4 15 -4 8 -8 15 -10 15 -2 0
-4 -7 -4 -15z"/>
<path d="M3000 2276 c0 -2 7 -7 16 -10 8 -3 12 -2 9 4 -6 10 -25 14 -25 6z"/>
<path d="M377 2219 c4 -13 8 -18 11 -10 2 7 -1 18 -6 23 -8 8 -9 4 -5 -13z"/>
<path d="M2917 2136 c-3 -8 0 -17 7 -19 10 -4 12 1 9 14 -6 23 -9 24 -16 5z"/>
<path d="M434 2058 l-19 -23 23 19 c21 18 27 26 19 26 -2 0 -12 -10 -23 -22z"/>
<path d="M2926 2028 c3 -5 10 -6 15 -3 13 9 11 12 -6 12 -8 0 -12 -4 -9 -9z"/>
<path d="M2857 1812 c-10 -10 -14 -22 -10 -25 9 -9 23 -9 22 1 -3 20 2 32 13
26 7 -4 8 -3 4 4 -9 15 -10 15 -29 -6z"/>
<path d="M435 1750 c3 -5 8 -10 11 -10 2 0 4 5 4 10 0 6 -5 10 -11 10 -5 0 -7
-4 -4 -10z"/>
<path d="M480 1730 c-8 -5 -12 -12 -9 -15 4 -3 12 1 19 10 14 17 11 19 -10 5z"/>
<path d="M579 1626 c-1 -3 -2 -11 -3 -16 0 -6 -8 -15 -16 -20 -11 -7 -11 -10
-2 -10 9 0 11 -7 7 -22 -5 -21 -5 -21 6 -5 6 11 12 24 13 30 1 7 5 17 9 24 4
6 3 14 -3 18 -5 3 -11 4 -11 1z"/>
<path d="M2749 1608 c-1 -7 -1 -16 0 -20 0 -5 -3 -8 -7 -8 -5 0 -9 -7 -9 -15
0 -8 4 -15 9 -15 4 0 8 7 8 16 0 9 5 12 13 8 7 -5 6 0 -3 11 -14 17 -13 18 4
12 16 -6 17 -5 6 8 -15 18 -20 19 -21 3z"/>
<path d="M516 1457 c3 -10 9 -15 12 -12 3 3 0 11 -7 18 -10 9 -11 8 -5 -6z"/>
<path d="M480 1451 c0 -5 7 -12 16 -15 14 -5 15 -4 4 9 -14 17 -20 19 -20 6z"/>
<path d="M475 1419 c-4 -6 -5 -12 -2 -15 2 -3 7 2 10 11 7 17 1 20 -8 4z"/>
<path d="M513 1343 c0 -9 4 -10 14 -2 7 6 13 12 13 14 0 1 -6 2 -13 2 -8 0
-14 -6 -14 -14z"/>
<path d="M533 1317 c0 -8 6 -14 14 -14 9 0 10 4 2 14 -6 7 -12 13 -14 13 -1 0
-2 -6 -2 -13z"/>
<path d="M490 1309 c0 -5 5 -7 10 -4 6 3 10 8 10 11 0 2 -4 4 -10 4 -5 0 -10
-5 -10 -11z"/>
<path d="M2767 1293 c-3 -5 1 -14 8 -20 11 -10 13 -9 12 7 -1 20 -12 26 -20
13z"/>
<path d="M486 1268 c3 -5 10 -6 15 -3 13 9 11 12 -6 12 -8 0 -12 -4 -9 -9z"/>
<path d="M550 1110 c0 -5 5 -10 11 -10 5 0 7 5 4 10 -3 6 -8 10 -11 10 -2 0
-4 -4 -4 -10z"/>
<path d="M613 1105 c0 -8 4 -12 9 -9 5 3 6 10 3 15 -9 13 -12 11 -12 -6z"/>
<path d="M646 1086 c3 -8 13 -17 22 -21 13 -5 13 -2 -3 15 -21 24 -26 25 -19
6z"/>
<path d="M593 1044 c0 -10 4 -11 11 -4 7 7 17 2 32 -15 19 -22 23 -23 28 -9 4
9 4 19 1 22 -3 3 -5 0 -5 -6 0 -7 -8 -5 -20 5 -25 22 -47 25 -47 7z"/>
<path d="M542 1003 c-16 -12 -16 -13 2 -6 14 5 17 3 12 -6 -6 -9 -3 -9 13 1
12 7 21 15 21 19 0 11 -30 6 -48 -8z"/>
<path d="M680 1010 c-8 -5 -10 -10 -5 -10 6 0 17 5 25 10 8 5 11 10 5 10 -5 0
-17 -5 -25 -10z"/>
<path d="M2576 1012 c-3 -4 4 -9 15 -9 23 -2 25 3 4 10 -8 4 -16 3 -19 -1z"/>
<path d="M728 1003 c6 -2 9 -10 6 -15 -4 -7 -2 -8 5 -4 13 9 5 26 -12 25 -9 0
-8 -2 1 -6z"/>
<path d="M493 985 c0 -8 4 -12 9 -9 5 3 6 10 3 15 -9 13 -12 11 -12 -6z"/>
<path d="M800 986 c0 -2 8 -10 18 -17 15 -13 16 -12 3 4 -13 16 -21 21 -21 13z"/>
<path d="M2572 970 c0 -14 2 -19 5 -12 2 6 2 18 0 25 -3 6 -5 1 -5 -13z"/>
<path d="M537 969 c7 -7 15 -10 18 -7 3 3 -2 9 -12 12 -14 6 -15 5 -6 -5z"/>
<path d="M2526 971 c-3 -5 1 -11 9 -14 9 -4 12 -1 8 9 -6 16 -10 17 -17 5z"/>
<path d="M696 944 c-3 -8 -11 -12 -17 -8 -8 4 -9 3 -5 -4 5 -9 13 -9 27 -2 11
6 17 15 14 21 -8 13 -12 11 -19 -7z"/>
<path d="M510 929 c0 -5 5 -7 10 -4 6 3 10 8 10 11 0 2 -4 4 -10 4 -5 0 -10
-5 -10 -11z"/>
<path d="M2571 924 c0 -11 3 -14 6 -6 3 7 2 16 -1 19 -3 4 -6 -2 -5 -13z"/>
<path d="M2540 905 c-13 -15 -5 -39 10 -30 5 3 20 1 32 -5 20 -10 19 -8 -4 13
-15 13 -25 27 -21 31 3 3 4 6 1 6 -3 0 -11 -7 -18 -15z"/>
<path d="M475 890 c3 -5 8 -10 11 -10 2 0 4 5 4 10 0 6 -5 10 -11 10 -5 0 -7
-4 -4 -10z"/>
<path d="M2631 823 c7 -12 15 -20 18 -17 3 2 -3 12 -13 22 -17 16 -18 16 -5
-5z"/>
<path d="M343 725 c0 -8 4 -12 9 -9 4 3 8 9 8 15 0 5 -4 9 -8 9 -5 0 -9 -7 -9
-15z"/>
<path d="M370 670 c0 -5 5 -10 11 -10 5 0 7 5 4 10 -3 6 -8 10 -11 10 -2 0 -4
-4 -4 -10z"/>
<path d="M424 606 c-6 -6 -11 -19 -11 -28 0 -13 4 -14 19 -5 10 7 13 14 7 16
-8 2 -8 6 1 11 7 4 8 10 4 13 -5 3 -14 0 -20 -7z"/>
<path d="M2870 570 c0 -5 5 -10 10 -10 6 0 10 5 10 10 0 6 -4 10 -10 10 -5 0
-10 -4 -10 -10z"/>
<path d="M2852 555 c4 -4 3 -14 -3 -22 -7 -8 -8 -13 -1 -13 15 0 23 28 9 36
-7 4 -9 4 -5 -1z"/>
<path d="M719 513 c-13 -16 -12 -17 4 -4 16 13 21 21 13 21 -2 0 -10 -8 -17
-17z"/>
<path d="M784 478 c-4 -6 -3 -8 4 -4 6 3 13 3 16 -2 8 -13 -27 -11 -44 2 -13
9 -13 9 -3 -5 7 -9 11 -18 8 -20 -2 -3 12 -5 33 -5 22 1 37 -4 37 -11 0 -6 4
-15 9 -20 5 -4 6 -3 2 4 -3 6 -2 14 4 18 6 4 8 11 4 16 -3 5 -9 7 -14 4 -5 -3
-14 4 -20 15 -12 22 -25 26 -36 8z"/>
<path d="M2790 481 c0 -6 4 -13 10 -16 6 -3 7 1 4 9 -7 18 -14 21 -14 7z"/>
<path d="M2125 440 c-3 -5 -1 -10 4 -10 6 0 11 5 11 10 0 6 -2 10 -4 10 -3 0
-8 -4 -11 -10z"/>
<path d="M1273 421 c0 -11 5 -18 9 -15 4 3 5 11 1 19 -7 21 -12 19 -10 -4z"/>
<path d="M1666 432 c-3 -5 1 -9 9 -9 8 0 15 4 15 9 0 4 -4 8 -9 8 -6 0 -12 -4
-15 -8z"/>
<path d="M1916 432 c-3 -5 1 -9 9 -9 8 0 12 4 9 9 -3 4 -7 8 -9 8 -2 0 -6 -4
-9 -8z"/>
<path d="M1455 410 c3 -5 8 -10 11 -10 2 0 4 5 4 10 0 6 -5 10 -11 10 -5 0 -7
-4 -4 -10z"/>
<path d="M1711 417 c2 -1 13 -9 24 -17 19 -14 19 -14 6 3 -7 9 -18 17 -24 17
-6 0 -8 -1 -6 -3z"/>
<path d="M1953 403 c0 -9 4 -10 13 -2 7 6 18 8 23 5 5 -4 12 -3 15 2 3 5 -8 8
-23 8 -16 0 -28 -5 -28 -13z"/>
</g>
</svg>
